<svg width="14" height="14" viewBox="0 0 14 14" fill="none" xmlns="http://www.w3.org/2000/svg">
<g clip-path="url(#clip0_2735_1225)">
<path d="M12.8273 7.14702C12.8273 3.87069 10.1877 1.21484 6.93196 1.21484C3.67479 1.21558 1.03516 3.87069 1.03516 7.14775C1.03516 10.1079 3.19137 12.5619 6.00934 13.007V8.86182H4.5134V7.14775H6.01081V5.83973C6.01081 4.35337 6.89143 3.53244 8.23778 3.53244C8.88331 3.53244 9.55759 3.64814 9.55759 3.64814V5.10723H8.81404C8.08229 5.10723 7.85384 5.56486 7.85384 6.03427V7.14702H9.48832L9.22745 8.86108H7.8531V13.0062C10.6711 12.5611 12.8273 10.1072 12.8273 7.14702Z" fill="#585E81"/>
</g>
<defs>
<clipPath id="clip0_2735_1225">
<rect width="12.8175" height="12.8175" fill="white" transform="translate(0.523438 0.703125)"/>
</clipPath>
</defs>
</svg>
