<svg width="14" height="14" viewBox="0 0 14 14" fill="none" xmlns="http://www.w3.org/2000/svg">
<g clip-path="url(#clip0_2735_1230)">
<path fill-rule="evenodd" clip-rule="evenodd" d="M4.73481 1.25022C5.36354 1.22128 5.56401 1.21484 7.1656 1.21484C8.76718 1.21484 8.96765 1.22181 9.59585 1.25022C10.224 1.27863 10.6529 1.37886 11.0281 1.52412C11.4209 1.67259 11.7774 1.90468 12.0722 2.20485C12.3724 2.49911 12.6039 2.85502 12.7519 3.24845C12.8976 3.62365 12.9973 4.05246 13.0263 4.67959C13.0552 5.30939 13.0617 5.50986 13.0617 7.11091C13.0617 8.71249 13.0547 8.91296 13.0263 9.5417C12.9979 10.1688 12.8976 10.5976 12.7519 10.9728C12.6039 11.3663 12.372 11.7228 12.0722 12.0175C11.7774 12.3177 11.4209 12.5492 11.0281 12.6972C10.6529 12.843 10.224 12.9427 9.59692 12.9716C8.96765 13.0005 8.76718 13.007 7.1656 13.007C5.56401 13.007 5.36354 13 4.73481 12.9716C4.10768 12.9432 3.67888 12.843 3.30367 12.6972C2.9102 12.5492 2.55371 12.3173 2.259 12.0175C1.95904 11.7231 1.72691 11.3667 1.57881 10.9734C1.43355 10.5982 1.33385 10.1694 1.30491 9.54223C1.27596 8.91242 1.26953 8.71196 1.26953 7.11091C1.26953 5.50932 1.2765 5.30886 1.30491 4.68066C1.33332 4.05246 1.43355 3.62365 1.57881 3.24845C1.72713 2.85507 1.95943 2.49875 2.25953 2.20431C2.55382 1.90442 2.90996 1.67229 3.30314 1.52412C3.67834 1.37886 4.10715 1.27916 4.73427 1.25022H4.73481ZM9.54814 2.31151C8.92638 2.2831 8.73985 2.27721 7.1656 2.27721C5.59135 2.27721 5.40482 2.2831 4.78305 2.31151C4.20792 2.33778 3.89596 2.43372 3.68799 2.51466C3.41302 2.62186 3.2163 2.74889 3.00994 2.95526C2.81432 3.14556 2.66378 3.37724 2.56935 3.6333C2.48841 3.84127 2.39246 4.15323 2.3662 4.72836C2.33779 5.35013 2.33189 5.53666 2.33189 7.11091C2.33189 8.68516 2.33779 8.87169 2.3662 9.49345C2.39246 10.0686 2.48841 10.3805 2.56935 10.5885C2.66368 10.8442 2.8143 11.0763 3.00994 11.2666C3.20022 11.4622 3.43232 11.6128 3.68799 11.7072C3.89596 11.7881 4.20792 11.884 4.78305 11.9103C5.40482 11.9387 5.59081 11.9446 7.1656 11.9446C8.74038 11.9446 8.92638 11.9387 9.54814 11.9103C10.1233 11.884 10.4352 11.7881 10.6432 11.7072C10.9182 11.6 11.1149 11.4729 11.3212 11.2666C11.5169 11.0763 11.6675 10.8442 11.7618 10.5885C11.8428 10.3805 11.9387 10.0686 11.965 9.49345C11.9934 8.87169 11.9993 8.68516 11.9993 7.11091C11.9993 5.53666 11.9934 5.35013 11.965 4.72836C11.9387 4.15323 11.8428 3.84127 11.7618 3.6333C11.6546 3.35833 11.5276 3.16162 11.3212 2.95526C11.1309 2.75965 10.8993 2.60911 10.6432 2.51466C10.4352 2.43372 10.1233 2.33778 9.54814 2.31151ZM6.41251 8.9285C6.83309 9.10358 7.30141 9.12721 7.73748 8.99536C8.17354 8.8635 8.55031 8.58434 8.80342 8.20556C9.05653 7.82678 9.17029 7.37187 9.12526 6.91854C9.08023 6.4652 8.87921 6.04156 8.55653 5.71997C8.35083 5.5144 8.10211 5.357 7.82828 5.25909C7.55444 5.16118 7.26231 5.1252 6.9729 5.15375C6.68349 5.18229 6.40401 5.27465 6.15458 5.42417C5.90515 5.57369 5.69198 5.77665 5.5304 6.01845C5.36883 6.26024 5.26288 6.53486 5.22017 6.82252C5.17747 7.11018 5.19907 7.40373 5.28343 7.68203C5.36779 7.96034 5.51281 8.21648 5.70805 8.43201C5.90328 8.64755 6.14388 8.81711 6.41251 8.9285ZM5.02264 4.96796C5.30406 4.68654 5.63815 4.46331 6.00584 4.31101C6.37353 4.15871 6.76761 4.08032 7.1656 4.08032C7.56358 4.08032 7.95766 4.15871 8.32535 4.31101C8.69304 4.46331 9.02713 4.68654 9.30855 4.96796C9.58996 5.24937 9.8132 5.58346 9.9655 5.95115C10.1178 6.31884 10.1962 6.71293 10.1962 7.11091C10.1962 7.50889 10.1178 7.90298 9.9655 8.27067C9.8132 8.63835 9.58996 8.97244 9.30855 9.25386C8.7402 9.82221 7.96936 10.1415 7.1656 10.1415C6.36183 10.1415 5.59099 9.82221 5.02264 9.25386C4.4543 8.68551 4.13501 7.91467 4.13501 7.11091C4.13501 6.30715 4.4543 5.5363 5.02264 4.96796ZM10.8683 4.53165C10.9381 4.46586 10.9939 4.38676 11.0325 4.29901C11.0711 4.21126 11.0917 4.11666 11.0931 4.0208C11.0945 3.92494 11.0767 3.82977 11.0406 3.74094C11.0046 3.6521 10.9511 3.5714 10.8833 3.50361C10.8155 3.43582 10.7348 3.38232 10.646 3.34628C10.5571 3.31024 10.462 3.29239 10.3661 3.29379C10.2703 3.29518 10.1757 3.3158 10.0879 3.35442C10.0002 3.39303 9.92106 3.44886 9.85527 3.5186C9.72733 3.65422 9.65729 3.83437 9.66001 4.0208C9.66273 4.20722 9.73799 4.38525 9.86983 4.51709C10.0017 4.64893 10.1797 4.7242 10.3661 4.72691C10.5526 4.72963 10.7327 4.65959 10.8683 4.53165Z" fill="#585E81"/>
</g>
<defs>
<clipPath id="clip0_2735_1230">
<rect width="12.8175" height="12.8175" fill="white" transform="translate(0.757812 0.703125)"/>
</clipPath>
</defs>
</svg>
