<svg width="14" height="14" viewBox="0 0 14 14" fill="none" xmlns="http://www.w3.org/2000/svg">
<g clip-path="url(#clip0_2735_1226)">
<path d="M3.91298 11.9185H1.5878V4.43062H3.91298V11.9185ZM2.74899 3.40923C2.00557 3.40923 1.40234 2.79318 1.40234 2.04977C1.40234 1.69262 1.54422 1.35009 1.79677 1.09755C2.04931 0.845003 2.39183 0.703125 2.74899 0.703125C3.10614 0.703125 3.44866 0.845003 3.70121 1.09755C3.95375 1.35009 4.09563 1.69262 4.09563 2.04977C4.09563 2.79318 3.4924 3.40923 2.74899 3.40923ZM12.6153 11.9185H10.2953V8.27348C10.2953 7.40469 10.2777 6.29077 9.08646 6.29077C7.8776 6.29077 7.69215 7.23446 7.69215 8.211V11.9185H5.36937V4.43062H7.59922V5.45202H7.63167C7.94209 4.86362 8.70033 4.24277 9.83148 4.24277C12.1847 4.24277 12.6173 5.79249 12.6173 7.80524V11.9185H12.6153Z" fill="#585E81"/>
</g>
<defs>
<clipPath id="clip0_2735_1226">
<rect width="12.8175" height="12.8175" fill="white" transform="translate(0.601562 0.703125)"/>
</clipPath>
</defs>
</svg>
