<svg width="14" height="13" viewBox="0 0 14 13" fill="none" xmlns="http://www.w3.org/2000/svg">
<g clip-path="url(#clip0_2735_1228)">
<path d="M13.7266 11C13.7043 10.999 13.682 10.9967 13.6598 10.9967C12.4716 10.9967 11.2829 10.9962 10.0947 10.9976C10.0465 10.9976 10.017 10.9843 9.9875 10.949C9.22384 10.0276 8.45915 9.10715 7.69394 8.18671C7.51688 7.97364 7.33982 7.76057 7.16275 7.5475C7.15136 7.53368 7.13894 7.52081 7.12444 7.50412C7.11098 7.51699 7.09907 7.52796 7.0882 7.5394C6.37166 8.29348 5.6546 9.0471 4.93806 9.80118C4.56995 10.1882 4.20184 10.5753 3.83477 10.9628C3.81095 10.9876 3.78662 10.9976 3.7509 10.9976C3.17466 10.9967 2.59842 10.9971 2.02271 10.9967C2.00614 10.9967 1.98957 10.9952 1.96265 10.9938C3.40039 9.48086 4.83037 7.97602 6.26449 6.4669C4.75271 4.64746 3.24248 2.82993 1.72656 1.00477C1.7509 1.00334 1.76695 1.00143 1.783 1.00143C1.91398 1.00095 2.04497 1.00143 2.17647 1.00143C3.2694 1.00095 4.36337 1.00143 5.45682 1C5.50549 1 5.53448 1.01335 5.56348 1.04862C6.41152 2.08251 7.2606 3.11545 8.10917 4.14839C8.12056 4.16173 8.13246 4.17508 8.14644 4.19129C8.16198 4.17603 8.17544 4.16412 8.18734 4.15125C9.1757 3.11164 10.1635 2.07202 11.1514 1.03194C11.171 1.01096 11.1907 1.00048 11.2213 1.00048C11.8042 1.00143 12.3872 1.00095 12.9702 1.00095C12.9821 1.00095 12.994 1.00238 13.0048 1.00286C13.0064 1.00572 13.0069 1.00715 13.0074 1.00906C13.0079 1.01049 13.0079 1.01239 13.0074 1.01335C13.0048 1.01764 13.0023 1.02145 12.9986 1.02526C11.6681 2.42619 10.3375 3.82711 9.00691 5.22756C9.00588 5.22851 9.00536 5.23042 9.00277 5.23614C9.01313 5.24901 9.02452 5.26474 9.03694 5.27952C9.51533 5.862 9.99371 6.44449 10.4726 7.02698C11.4118 8.1705 12.3515 9.31355 13.2906 10.4571C13.4299 10.6268 13.5692 10.7965 13.7084 10.9662C13.7131 10.9719 13.7198 10.9762 13.726 10.9809C13.7266 10.9871 13.7266 10.9933 13.7266 11ZM3.88706 1.96001C3.88551 1.96382 3.88344 1.96716 3.88188 1.97097C3.89275 1.98479 3.90363 1.99909 3.91502 2.01292C4.29607 2.47195 4.67764 2.93098 5.05921 3.39001C5.77575 4.2523 6.49229 5.11507 7.20883 5.97784C7.82079 6.71429 8.43275 7.45074 9.04419 8.18671C9.53138 8.77301 10.0186 9.35931 10.5052 9.94609C10.5239 9.96849 10.5415 9.98279 10.5762 9.98232C10.8884 9.98089 11.2005 9.98136 11.5127 9.98136C11.5236 9.98136 11.535 9.97993 11.5526 9.9785C11.535 9.95658 11.5226 9.93989 11.5091 9.92369C10.7884 9.04614 10.0672 8.1686 9.34655 7.29153C8.62897 6.4178 7.91139 5.54407 7.1933 4.67034C6.46381 3.78135 5.73329 2.89237 5.00381 2.00291C4.97844 1.97192 4.95255 1.95858 4.9101 1.95905C4.58755 1.96048 4.265 1.96001 3.94246 1.96001C3.92382 1.96001 3.9057 1.96001 3.88706 1.96001Z" fill="#585E81"/>
</g>
<defs>
<clipPath id="clip0_2735_1228">
<rect width="13" height="13" fill="white" transform="translate(0.726562)"/>
</clipPath>
</defs>
</svg>
