<svg width="13" height="10" viewBox="0 0 13 10" fill="none" xmlns="http://www.w3.org/2000/svg">
<path d="M12.7266 10C12.7043 9.99905 12.682 9.99666 12.6598 9.99666C11.4716 9.99666 10.2829 9.99619 9.09467 9.99762C9.04652 9.99762 9.01701 9.98427 8.9875 9.949C8.22384 9.0276 7.45915 8.10715 6.69394 7.18671C6.51688 6.97364 6.33982 6.76057 6.16275 6.5475C6.15136 6.53368 6.13894 6.52081 6.12444 6.50412C6.11098 6.51699 6.09907 6.52796 6.0882 6.5394C5.37166 7.29348 4.6546 8.0471 3.93806 8.80118C3.56995 9.18824 3.20184 9.57529 2.83477 9.96282C2.81095 9.98761 2.78662 9.99762 2.7509 9.99762C2.17466 9.99666 1.59842 9.99714 1.02271 9.99666C1.00614 9.99666 0.98957 9.99523 0.962648 9.9938C2.40039 8.48086 3.83037 6.97602 5.26449 5.4669C3.75271 3.64746 2.24248 1.82993 0.726562 0.00476667C0.750896 0.00333667 0.766946 0.00143 0.782995 0.00143C0.913982 0.000953334 1.04497 0.00143 1.17647 0.00143C2.2694 0.000953334 3.36337 0.00143 4.45682 0C4.50549 0 4.53448 0.0133467 4.56348 0.04862C5.41152 1.08251 6.2606 2.11545 7.10917 3.14839C7.12056 3.16173 7.13246 3.17508 7.14644 3.19129C7.16198 3.17603 7.17544 3.16412 7.18734 3.15125C8.1757 2.11164 9.16353 1.07202 10.1514 0.0319367C10.171 0.0109633 10.1907 0.000476667 10.2213 0.000476667C10.8042 0.00143 11.3872 0.000953334 11.9702 0.000953334C11.9821 0.000953334 11.994 0.00238334 12.0048 0.00286C12.0064 0.00572001 12.0069 0.00715001 12.0074 0.00905668C12.0079 0.0104867 12.0079 0.0123933 12.0074 0.0133467C12.0048 0.0176367 12.0023 0.02145 11.9986 0.0252634C10.6681 1.42619 9.33749 2.82711 8.00691 4.22756C8.00588 4.22851 8.00536 4.23042 8.00277 4.23614C8.01313 4.24901 8.02452 4.26474 8.03694 4.27952C8.51533 4.862 8.99371 5.44449 9.47262 6.02698C10.4118 7.1705 11.3515 8.31355 12.2906 9.45708C12.4299 9.62677 12.5692 9.79646 12.7084 9.96616C12.7131 9.97188 12.7198 9.97617 12.726 9.98093C12.7266 9.98713 12.7266 9.99333 12.7266 10ZM2.88706 0.960008C2.88551 0.963821 2.88344 0.967158 2.88188 0.970971C2.89275 0.984794 2.90363 0.999094 2.91502 1.01292C3.29607 1.47195 3.67764 1.93098 4.05921 2.39001C4.77575 3.2523 5.49229 4.11507 6.20883 4.97784C6.82079 5.71429 7.43275 6.45074 8.04419 7.18671C8.53138 7.77301 9.01856 8.35931 9.50523 8.94609C9.52387 8.96849 9.54147 8.98279 9.57616 8.98232C9.88835 8.98089 10.2005 8.98136 10.5127 8.98136C10.5236 8.98136 10.535 8.97993 10.5526 8.9785C10.535 8.95658 10.5226 8.93989 10.5091 8.92369C9.78843 8.04614 9.06723 7.1686 8.34655 6.29153C7.62897 5.4178 6.91139 4.54407 6.1933 3.67034C5.46381 2.78135 4.73329 1.89237 4.00381 1.00291C3.97844 0.971924 3.95255 0.958578 3.9101 0.959054C3.58755 0.960484 3.265 0.960008 2.94246 0.960008C2.92382 0.960008 2.9057 0.960008 2.88706 0.960008Z" fill="#585E81"/>
</svg>
